<svg xmlns="http://www.w3.org/2000/svg" width="1000" height="220" viewBox="0 0 1000 220" role="img" aria-labelledby="title description">
  <title id="title">Bear Huddleston</title>
  <desc id="description">Practical tools for AI workflows.</desc>
  <rect x="1" y="1" width="998" height="218" rx="16" fill="#121d25" stroke="#2b3b45"/>
  <path d="M44 48h36" stroke="#d7a16e" stroke-width="4"/>
  <text x="42" y="123" fill="#f3efe6" font-family="Georgia, 'DejaVu Serif', serif" font-size="64" letter-spacing="-2">Bear Huddleston</text>
  <text x="46" y="171" fill="#adbcc5" font-family="-apple-system, BlinkMacSystemFont, 'Segoe UI', sans-serif" font-size="27">Practical tools for AI workflows.</text>
  <g fill="none" stroke="#344a57" stroke-width="2">
    <path d="M725 72h60c30 0 30 76 60 76h95"/>
    <path d="M725 110h215"/>
    <path d="M725 148h60c30 0 30-76 60-76h95"/>
  </g>
  <path d="M725 148h60c30 0 30-76 60-76h95" fill="none" stroke="#d7a16e" stroke-width="3"/>
  <g fill="#121d25" stroke="#647b89" stroke-width="2">
    <circle cx="725" cy="72" r="7"/>
    <circle cx="725" cy="110" r="7"/>
    <circle cx="940" cy="110" r="7"/>
    <circle cx="940" cy="148" r="7"/>
  </g>
  <g fill="#d7a16e">
    <circle cx="725" cy="148" r="7"/>
    <circle cx="940" cy="72" r="7"/>
  </g>
</svg>
